<?xml version="1.0" encoding="UTF-8" standalone="no"?>
<!-- Created with Inkscape (http://www.inkscape.org/) -->

<svg
   xmlns:dc="http://purl.org/dc/elements/1.1/"
   xmlns:cc="http://creativecommons.org/ns#"
   xmlns:rdf="http://www.w3.org/1999/02/22-rdf-syntax-ns#"
   xmlns:svg="http://www.w3.org/2000/svg"
   xmlns="http://www.w3.org/2000/svg"
   xmlns:sodipodi="http://sodipodi.sourceforge.net/DTD/sodipodi-0.dtd"
   xmlns:inkscape="http://www.inkscape.org/namespaces/inkscape"
   width="200"
   height="200"
   viewBox="0 0 52.916668 52.916666"
   version="1.1"
   id="svg8"
   inkscape:version="0.92.2 5c3e80d, 2017-08-06"
   sodipodi:docname="productivist.svg">
  <defs
     id="defs2">
    <inkscape:path-effect
       effect="envelope"
       id="path-effect4658"
       is_visible="true"
       yy="true"
       xx="true"
       bendpath1="m -199.08406,108.42369 h 7.0057"
       bendpath2="m -192.07836,108.42369 v 6.75242"
       bendpath3="m -199.08406,115.17611 h 7.0057"
       bendpath4="m -199.08406,108.42369 v 6.75242" />
    <inkscape:path-effect
       effect="bend_path"
       id="path-effect4656"
       is_visible="true"
       bendpath="m -192.00142,114.60623 c 2.12577,-0.53066 4.48261,0.85111 7.0057,0"
       prop_scale="1"
       scale_y_rel="false"
       vertical="false"
       bendpath-nodetypes="cc" />
    <inkscape:path-effect
       effect="bounding_box"
       id="path-effect4654"
       is_visible="true"
       linkedpath=""
       visualbounds="false" />
  </defs>
  <sodipodi:namedview
     id="base"
     pagecolor="#ffffff"
     bordercolor="#666666"
     borderopacity="1.0"
     inkscape:pageopacity="0.0"
     inkscape:pageshadow="2"
     inkscape:zoom="2"
     inkscape:cx="195.96989"
     inkscape:cy="96.704142"
     inkscape:document-units="px"
     inkscape:current-layer="layer1"
     showgrid="false"
     fit-margin-top="0"
     fit-margin-left="0"
     fit-margin-right="0"
     fit-margin-bottom="0"
     inkscape:window-width="1920"
     inkscape:window-height="1016"
     inkscape:window-x="0"
     inkscape:window-y="27"
     inkscape:window-maximized="1"
     showguides="true"
     inkscape:object-nodes="false"
     units="px"
     inkscape:guide-bbox="true" />
  <metadata
     id="metadata5">
    <rdf:RDF>
      <cc:Work
         rdf:about="">
        <dc:format>image/svg+xml</dc:format>
        <dc:type
           rdf:resource="http://purl.org/dc/dcmitype/StillImage" />
        <dc:title></dc:title>
      </cc:Work>
    </rdf:RDF>
  </metadata>
  <g
     inkscape:label="Layer 1"
     inkscape:groupmode="layer"
     id="layer1"
     transform="translate(39.608708,-92.411388)">
    <path
       style="fill:#000000;fill-opacity:1;stroke:none;stroke-width:1.05833328;stroke-linecap:round;stroke-linejoin:round;stroke-miterlimit:4;stroke-dasharray:none;stroke-dashoffset:23;stroke-opacity:1;paint-order:stroke fill markers"
       d="m -13.150375,92.411388 a 26.458332,26.458332 0 0 1 26.458333,26.458332 26.458332,26.458332 0 0 1 -26.458333,26.45833 H -34.9785 c -2.565135,0 -4.630208,-2.06507 -4.630208,-4.6302 V 97.041596 c 0,-2.565135 2.065073,-4.630208 4.630208,-4.630208 z"
       id="path905"
       inkscape:connector-curvature="0" />
    <text
       xml:space="preserve"
       style="font-style:normal;font-variant:normal;font-weight:500;font-stretch:normal;font-size:8.46666622px;line-height:4.23333311px;font-family:Montserrat;-inkscape-font-specification:'Montserrat Medium';text-align:center;text-anchor:middle;opacity:1;fill:#eeeeee;fill-opacity:1;fill-rule:nonzero;stroke:none;stroke-width:4.23333311;stroke-linecap:butt;stroke-linejoin:round;stroke-miterlimit:4;stroke-dasharray:none;stroke-dashoffset:0;stroke-opacity:1;paint-order:stroke fill markers"
       x="-355.53735"
       y="24.113144"
       id="text4627-36-3"><tspan
         sodipodi:role="line"
         id="tspan4625-0-6"
         x="-355.53735"
         y="24.113144"
         style="font-style:normal;font-variant:normal;font-weight:500;font-stretch:normal;font-size:8.46666622px;font-family:Montserrat;-inkscape-font-specification:'Montserrat Medium';text-align:center;text-anchor:middle;fill:#eeeeee;fill-opacity:1;stroke-width:4.23333311">ORD</tspan></text>
    <path
       style="fill:#1a40bf;fill-opacity:1;stroke:none;stroke-width:1.05833328;stroke-linecap:round;stroke-linejoin:round;stroke-miterlimit:4;stroke-dasharray:none;stroke-dashoffset:23;stroke-opacity:1;paint-order:stroke fill markers"
       d="m -13.150375,95.057221 a 23.812499,23.812499 0 0 1 23.8125,23.812499 23.812499,23.812499 0 0 1 -23.8125,23.8125 h -20.902083 c -1.612374,0 -2.910417,-1.29804 -2.910417,-2.91042 V 97.967638 c 0,-1.612372 1.298043,-2.910417 2.910417,-2.910417 z"
       id="path883"
       inkscape:connector-curvature="0" />
    <path
       style="fill:#000000;fill-opacity:1;stroke:none;stroke-width:2.11666656;stroke-linecap:round;stroke-linejoin:round;stroke-miterlimit:4;stroke-dasharray:none;stroke-dashoffset:0;stroke-opacity:1;paint-order:stroke markers fill"
       d="m -11.403712,102.31104 c -2.150209,-0.005 -0.57322,3.97599 -2.971911,4.24625 -2.476067,0.27899 -1.701593,-4.23981 -4.0535,-3.41684 -2.351907,0.82297 1.0706,3.87348 -1.039212,5.19916 -2.109813,1.32569 -3.373165,-3.08173 -5.135087,-1.31981 -1.761923,1.76192 2.645498,3.02527 1.319816,5.13509 -1.325683,2.10981 -4.376198,-1.3127 -5.199166,1.03921 -0.822968,2.35191 3.695831,1.57743 3.416845,4.0535 -0.278985,2.47607 -4.511802,0.71598 -4.232816,3.19205 0.278986,2.47607 4.013946,-0.18201 4.836914,2.1699 0.822968,2.3519 -3.754475,2.60256 -2.428793,4.71237 1.325684,2.10981 3.537496,-1.90558 5.299419,-0.14366 1.761922,1.76192 -2.253473,3.97373 -0.143661,5.29942 2.109813,1.32568 2.360467,-3.25177 4.712374,-2.4288 2.351907,0.82297 -0.306174,4.55793 2.169893,4.83692 2.476067,0.27898 0.715986,-3.95383 3.192054,-4.23282 2.4760657,-0.27899 1.7015906,4.23981 4.0534983,3.41685 2.3519077,-0.82297 -1.0705994,-3.87349 1.0392146,-5.19917 2.1098112,-1.32568 3.3731622,3.08174 5.1350861,1.31982 1.76192129,-1.76193 -2.6454999,-3.02528 -1.3198157,-5.13509 1.3256816,-2.10981 4.3761977,1.31269 5.1991656,-1.03921 0.822968,-2.35191 -3.6958322,-1.57744 -3.41684497,-4.0535 0.2789846,-2.47607 4.51180197,-0.71599 4.23281467,-3.19206 -0.2789846,-2.47606 -4.01394605,0.18202 -4.836914,-2.16989 -0.8229679,-2.35191 3.7544772,-2.60256 2.42879297,-4.71237 -1.32568419,-2.10982 -3.53749497,1.90558 -5.29941887,0.14366 -1.7619213,-1.76192 2.2534747,-3.97374 0.1436608,-5.29942 -2.1098113,-1.32568 -2.360467,3.25176 -4.712372,2.42879 -2.3519075,-0.82297 0.3061732,-4.55793 -2.1698955,-4.83691 -0.07738,-0.009 -0.150778,-0.0133 -0.220141,-0.0134 z m -1.614371,11.00243 a 5.1593747,5.1593747 0 0 1 5.1593746,5.15938 5.1593747,5.1593747 0 0 1 -5.1593746,5.15937 5.1593747,5.1593747 0 0 1 -5.159375,-5.15937 5.1593747,5.1593747 0 0 1 5.159375,-5.15938 z"
       id="path1345"
       inkscape:connector-curvature="0" />
  </g>
</svg>
